<svg width="113" height="112" viewBox="0 0 113 112" fill="none" xmlns="http://www.w3.org/2000/svg">
<path fill-rule="evenodd" clip-rule="evenodd" d="M56.5 112C87.4279 112 112.5 86.9279 112.5 56C112.5 25.0721 87.4279 0 56.5 0C25.5721 0 0.5 25.0721 0.5 56C0.5 86.9279 25.5721 112 56.5 112ZM45.9142 42.5858C45.1332 41.8047 43.8668 41.8047 43.0858 42.5858C42.3047 43.3668 42.3047 44.6332 43.0858 45.4142L53.6716 56L43.0858 66.5858C42.3047 67.3668 42.3047 68.6332 43.0858 69.4142C43.8668 70.1953 45.1332 70.1953 45.9142 69.4142L56.5 58.8284L67.0858 69.4142C67.8668 70.1953 69.1332 70.1953 69.9142 69.4142C70.6953 68.6332 70.6953 67.3668 69.9142 66.5858L59.3284 56L69.9142 45.4142C70.6953 44.6332 70.6953 43.3668 69.9142 42.5858C69.1332 41.8047 67.8668 41.8047 67.0858 42.5858L56.5 53.1716L45.9142 42.5858Z" fill="#FF6B77"/>
</svg>
