<svg width="20" height="20" viewBox="0 0 20 20" fill="none" xmlns="http://www.w3.org/2000/svg">
<path fill-rule="evenodd" clip-rule="evenodd" d="M10 0C4.47715 0 0 4.47715 0 10C0 15.5228 4.47715 20 10 20C15.5228 20 20 15.5228 20 10C20 4.47715 15.5228 0 10 0ZM13.7071 8.52529C14.0976 8.13476 14.0976 7.5016 13.7071 7.11107C13.3166 6.72055 12.6834 6.72055 12.2929 7.11107L8.63636 10.7676L7.70711 9.83835C7.31658 9.44782 6.68342 9.44782 6.29289 9.83835C5.90237 10.2289 5.90237 10.862 6.29289 11.2526L7.92926 12.8889C8.11679 13.0765 8.37115 13.1818 8.63636 13.1818C8.90158 13.1818 9.15593 13.0765 9.34347 12.8889L13.7071 8.52529Z" fill="#37C99E"/>
</svg>
