<svg width="28" height="28" viewBox="0 0 28 28" fill="none" xmlns="http://www.w3.org/2000/svg">
<path d="M22.4853 5.51472L18.0925 4.61516C17.9676 4.58957 17.8487 4.54033 17.7422 4.47008L14.5509 2.3636C14.2167 2.14306 13.7833 2.14306 13.4491 2.3636L10.2578 4.47008C10.1513 4.54033 10.0324 4.58957 9.9075 4.61516L6.16135 5.3823C5.76913 5.46262 5.46262 5.76913 5.3823 6.16135L4.61516 9.9075C4.58957 10.0324 4.54033 10.1513 4.47008 10.2578L2.3636 13.4491C2.14306 13.7833 2.14306 14.2167 2.3636 14.5509L4.47008 17.7422C4.54033 17.8487 4.58957 17.9676 4.61516 18.0925L5.51472 22.4853M23.4236 10.0966L25.6364 13.4491C25.8569 13.7833 25.8569 14.2167 25.6364 14.5509L23.5299 17.7422C23.4597 17.8487 23.4104 17.9676 23.3848 18.0925L22.6177 21.8386C22.5374 22.2309 22.2309 22.5374 21.8386 22.6177L18.0925 23.3848C17.9676 23.4104 17.8487 23.4597 17.7422 23.5299L14.5509 25.6364C14.2167 25.8569 13.7833 25.8569 13.4491 25.6364L10.0966 23.4236M1 27L27 1" stroke="#A9ABB8" stroke-width="2" stroke-linecap="round"/>
</svg>
