<svg width="57" height="55" viewBox="0 0 57 55" fill="none" xmlns="http://www.w3.org/2000/svg">
<path d="M24.4779 4.90543C25.7994 2.63668 26.4601 1.5023 27.3208 1.12065C28.0717 0.787713 28.9283 0.787713 29.6792 1.12065C30.5399 1.5023 31.2006 2.63667 32.522 4.90543L37.8127 13.9889C38.193 14.6418 38.3831 14.9682 38.6382 15.228C38.8644 15.4582 39.1273 15.6492 39.4161 15.7931C39.742 15.9555 40.1112 16.0355 40.8497 16.1954L51.1235 18.4202C53.6895 18.9758 54.9726 19.2537 55.6015 19.9543C56.1502 20.5656 56.4149 21.3803 56.3303 22.1973C56.2333 23.1338 55.3586 24.1127 53.6092 26.0705L46.6052 33.9092C46.1018 34.4726 45.8501 34.7543 45.6819 35.0772C45.5328 35.3635 45.4324 35.6725 45.3848 35.9917C45.3311 36.3518 45.3691 36.7277 45.4452 37.4794L46.5041 47.9378C46.7686 50.55 46.9008 51.8561 46.4288 52.6708C46.0171 53.3815 45.324 53.885 44.5209 54.057C43.6002 54.2542 42.3989 53.7248 39.9963 52.666L30.3769 48.4271C29.6856 48.1224 29.3399 47.9701 28.9808 47.9099C28.6625 47.8566 28.3375 47.8566 28.0192 47.9099C27.6601 47.9701 27.3144 48.1224 26.6231 48.4271L17.0037 52.666C14.6011 53.7248 13.3998 54.2542 12.4791 54.057C11.676 53.885 10.9829 53.3815 10.5712 52.6708C10.0992 51.8561 10.2314 50.55 10.4959 47.9378L11.5548 37.4794C11.6309 36.7277 11.6689 36.3518 11.6152 35.9917C11.5676 35.6725 11.4672 35.3635 11.3181 35.0772C11.1499 34.7543 10.8982 34.4726 10.3948 33.9092L3.39077 26.0706C1.64139 24.1127 0.766708 23.1338 0.669719 22.1973C0.585108 21.3803 0.849819 20.5656 1.39849 19.9543C2.02744 19.2537 3.31047 18.9758 5.87653 18.4202L16.1503 16.1954C16.8888 16.0355 17.258 15.9555 17.5839 15.7931C17.8727 15.6492 18.1356 15.4582 18.3618 15.228C18.6169 14.9682 18.807 14.6418 19.1873 13.9889L24.4779 4.90543Z" fill="url(#paint0_linear_323_1155)"/>
<defs>
<linearGradient id="paint0_linear_323_1155" x1="28.5" y1="-2" x2="28.5" y2="62" gradientUnits="userSpaceOnUse">
<stop stop-color="#FFA735"/>
<stop offset="1" stop-color="#FF8935"/>
</linearGradient>
</defs>
</svg>
