<svg width="14" height="8" viewBox="0 0 14 8" fill="none" xmlns="http://www.w3.org/2000/svg">
<path d="M1 7C1 6.21207 1.15519 5.43185 1.45672 4.7039C1.75825 3.97595 2.20021 3.31451 2.75736 2.75736C3.31451 2.20021 3.97595 1.75825 4.7039 1.45672C5.43185 1.15519 6.21207 1 7 1C7.78793 1 8.56815 1.15519 9.2961 1.45672C10.0241 1.75825 10.6855 2.20021 11.2426 2.75736C11.7998 3.31451 12.2417 3.97595 12.5433 4.7039C12.8448 5.43185 13 6.21207 13 7" stroke="#EEF0F3" stroke-width="2"/>
<path d="M13 7C13 5.4087 12.3679 3.88258 11.2426 2.75736C10.1174 1.63214 8.5913 1 7 1C5.4087 1 3.88258 1.63214 2.75736 2.75736C1.63214 3.88258 1 5.4087 1 7" stroke="#37C99E" stroke-width="2" stroke-linecap="round" stroke-linejoin="round"/>
</svg>
