<svg width="68" height="24" viewBox="0 0 68 24" fill="none" xmlns="http://www.w3.org/2000/svg">
<path d="M28.7222 16.2162H30.8368V12.934H34.2357V11.014H30.8368V8.93836H34.9492V7.00539H28.7222V16.2162Z" fill="#141A33"/>
<path d="M36.7345 9.08106C37.435 9.08106 37.954 8.57512 37.954 7.9135C37.954 7.27782 37.435 6.77187 36.7345 6.77187C36.034 6.77187 35.528 7.29079 35.528 7.9135C35.528 8.57512 36.034 9.08106 36.7345 9.08106ZM35.7226 16.2162H37.7464V9.87242H35.7226V16.2162Z" fill="#141A33"/>
<path d="M39.0491 16.2162H41.0728V13.0248C41.0728 12.0389 41.5399 11.5589 42.2404 11.5589C42.902 11.5589 43.2523 11.8573 43.2523 12.9081V16.2162H45.2761V12.4151C45.2761 10.4043 44.3161 9.75566 43.0058 9.75566C42.2664 9.75566 41.5918 10.0411 41.0988 10.6119H41.0728V9.87242H39.0491V16.2162Z" fill="#141A33"/>
<path d="M50.1803 16.333C51.9316 16.333 53.177 15.0097 53.177 13.0508C53.177 11.1048 51.9316 9.75566 50.2841 9.75566C49.5705 9.75566 48.9349 10.0151 48.4808 10.547H48.4549V6.66809H46.4311V16.2162H48.3511V15.5416H48.377C48.7922 16.0735 49.4019 16.333 50.1803 16.333ZM49.7781 14.5427C48.9738 14.5427 48.3641 13.9589 48.3641 13.0508C48.3641 12.1816 48.9478 11.5459 49.7651 11.5459C50.5435 11.5459 51.1273 12.1427 51.1273 13.0508C51.1273 13.9459 50.5565 14.5427 49.7781 14.5427Z" fill="#141A33"/>
<path d="M57.2183 16.333C59.2162 16.333 60.6432 14.9967 60.6432 13.0508C60.6432 11.0919 59.2162 9.75566 57.2183 9.75566C55.1686 9.75566 53.7805 11.1178 53.7805 13.0508C53.7805 14.9708 55.1686 16.333 57.2183 16.333ZM57.2183 14.5427C56.414 14.5427 55.8302 13.894 55.8302 13.0508C55.8302 12.1816 56.401 11.5589 57.2183 11.5589C58.0097 11.5589 58.5935 12.1686 58.5935 13.0508C58.5935 13.92 57.9837 14.5427 57.2183 14.5427Z" fill="#141A33"/>
<path d="M60.4976 16.2162H62.6771L63.7668 14.6335H63.7798L64.8566 16.2162H67.036L64.8955 12.96L66.9971 9.87242H64.7268L63.7668 11.4421H63.7539L62.8198 9.87242H60.5366L62.6382 12.947L60.4976 16.2162Z" fill="#141A33"/>
<path fill-rule="evenodd" clip-rule="evenodd" d="M9.62589 3.46876C9.09824 3.70442 8.45652 4.06791 7.49498 4.61499L5.87336 5.53764C4.89151 6.09627 4.23731 6.47018 3.75594 6.81097C3.298 7.13518 3.08411 7.37073 2.94631 7.60768C2.80851 7.84464 2.70955 8.14702 2.65422 8.70538C2.59606 9.2923 2.5946 10.0458 2.5946 11.1755V12.8246C2.5946 13.9542 2.59606 14.7078 2.65422 15.2947C2.70955 15.853 2.80851 16.1554 2.94631 16.3924C3.08411 16.6293 3.298 16.8649 3.75594 17.1891C4.23731 17.5299 4.89151 17.9038 5.87336 18.4624L7.49498 19.3851C8.45652 19.9321 9.09824 20.2956 9.62589 20.5313C10.1278 20.7555 10.4336 20.8196 10.7027 20.8196C10.9718 20.8196 11.2776 20.7555 11.7795 20.5313C12.3072 20.2956 12.9489 19.9321 13.9104 19.3851L15.5321 18.4624C16.5139 17.9038 17.1681 17.5299 17.6495 17.1891C18.1074 16.8649 18.3213 16.6293 18.4591 16.3924C18.5969 16.1554 18.6959 15.853 18.7512 15.2947C18.8093 14.7078 18.8108 13.9542 18.8108 12.8246V8.43246C18.8108 7.71598 19.3916 7.13516 20.1081 7.13516C20.8246 7.13516 21.4054 7.71598 21.4054 8.43246V12.8865C21.4054 13.9381 21.4055 14.8207 21.3331 15.5505C21.2566 16.3232 21.0917 17.0265 20.702 17.6968C20.3122 18.367 19.7824 18.858 19.1487 19.3067C18.5501 19.7305 17.783 20.1669 16.869 20.6869L15.1407 21.6702C14.2458 22.1794 13.4944 22.607 12.8376 22.9003C12.1422 23.2109 11.4633 23.4142 10.7027 23.4142C9.94216 23.4142 9.26319 23.2109 8.56779 22.9003C7.91104 22.607 7.1596 22.1794 6.26472 21.6703L4.53648 20.6869C3.62247 20.1669 2.85534 19.7305 2.25674 19.3067C1.623 18.858 1.0932 18.367 0.703432 17.6968C0.313662 17.0265 0.148837 16.3232 0.0722708 15.5505C-4.96474e-05 14.8207 -2.66046e-05 13.9381 1.07774e-06 12.8865V11.1135C-2.66046e-05 10.062 -4.96474e-05 9.17939 0.0722708 8.44954C0.148837 7.67684 0.313662 6.97351 0.703432 6.3033C1.0932 5.63309 1.623 5.14202 2.25674 4.69335C2.85533 4.26957 3.62245 3.83313 4.53644 3.31313C4.55433 3.30296 4.57227 3.29275 4.59027 3.28251L6.26474 2.32979C7.15961 1.82061 7.91104 1.39304 8.56779 1.09972C9.26319 0.789127 9.94216 0.585877 10.7027 0.585876C11.4633 0.585876 12.1422 0.789127 12.8376 1.09972C13.4944 1.39305 14.2458 1.82061 15.1407 2.3298L16.047 2.84543C16.6697 3.19975 16.8873 3.99181 16.533 4.61454C16.1787 5.23728 15.3866 5.45488 14.7639 5.10056L13.9104 4.61499C12.9489 4.06791 12.3072 3.70442 11.7795 3.46876C11.2776 3.2446 10.9718 3.18047 10.7027 3.18047C10.4336 3.18047 10.1278 3.2446 9.62589 3.46876Z" fill="#0070FF"/>
<path fill-rule="evenodd" clip-rule="evenodd" d="M21.247 7.81122C21.5901 8.44021 21.3583 9.22824 20.7293 9.57132L12.1476 14.2522C11.1796 14.7803 10.0096 14.7803 9.04155 14.2522L5.21661 12.1659C4.58762 11.8228 4.35585 11.0348 4.69893 10.4058C5.04202 9.77682 5.83005 9.54505 6.45904 9.88813L10.284 11.9745C10.4776 12.0801 10.7116 12.0801 10.9052 11.9745L19.4869 7.29354C20.1159 6.95045 20.9039 7.18222 21.247 7.81122Z" fill="#37C99E"/>
</svg>
