<svg width="14" height="8" viewBox="0 0 14 8" fill="none" xmlns="http://www.w3.org/2000/svg">
<path d="M1 7C1 6.21207 1.15519 5.43185 1.45672 4.7039C1.75825 3.97595 2.20021 3.31451 2.75736 2.75736C3.31451 2.20021 3.97595 1.75825 4.7039 1.45672C5.43185 1.15519 6.21207 1 7 1C7.78793 1 8.56815 1.15519 9.2961 1.45672C10.0241 1.75825 10.6855 2.20021 11.2426 2.75736C11.7998 3.31451 12.2417 3.97595 12.5433 4.7039C12.8448 5.43185 13 6.21207 13 7" stroke="#EEF0F3" stroke-width="2"/>
<path d="M9.05212 1.36184C8.16236 1.038 7.20859 0.92933 6.26878 1.04472C5.32898 1.16012 4.42983 1.4963 3.64484 2.02577C2.85986 2.55525 2.21133 3.263 1.75228 4.09114C1.29323 4.91929 1.0367 5.84432 1.00366 6.7906" stroke="#FFA735" stroke-width="2" stroke-linecap="round" stroke-linejoin="round"/>
</svg>
