<svg width="22" height="22" viewBox="0 0 22 22" fill="none" xmlns="http://www.w3.org/2000/svg">
<path fill-rule="evenodd" clip-rule="evenodd" d="M11 2C6.02944 2 2 6.02944 2 11C2 15.9706 6.02944 20 11 20C15.9706 20 20 15.9706 20 11C20 6.02944 15.9706 2 11 2ZM0 11C0 4.92487 4.92487 0 11 0C17.0751 0 22 4.92487 22 11C22 17.0751 17.0751 22 11 22C4.92487 22 0 17.0751 0 11ZM11 5C11.5523 5 12 5.44772 12 6V11C12 11.5523 11.5523 12 11 12C10.4477 12 10 11.5523 10 11V6C10 5.44772 10.4477 5 11 5ZM12 15C12 14.4477 11.5523 14 11 14C10.4477 14 10 14.4477 10 15V15.001C10 15.5533 10.4477 16.001 11 16.001C11.5523 16.001 12 15.5533 12 15.001V15Z" fill="#A9ABB8"/>
</svg>
