<svg width="16" height="16" viewBox="0 0 16 16" fill="none" xmlns="http://www.w3.org/2000/svg">
<path fill-rule="evenodd" clip-rule="evenodd" d="M9.95169 3.28821L8 2L6.04831 3.28821L3.75736 3.75736L3.28821 6.04831L2 8L3.28821 9.95169L3.75736 12.2426L6.04831 12.7118L8 14L9.95169 12.7118L12.2426 12.2426L12.7118 9.95169L14 8L12.7118 6.04831L12.2426 3.75736L9.95169 3.28821ZM10.0303 7.53033C10.3232 7.23744 10.3232 6.76256 10.0303 6.46967C9.73744 6.17678 9.26256 6.17678 8.96967 6.46967L7.5 7.93934L7.03033 7.46967C6.73744 7.17678 6.26256 7.17678 5.96967 7.46967C5.67678 7.76256 5.67678 8.23744 5.96967 8.53033L6.96967 9.53033C7.11032 9.67098 7.30109 9.75 7.5 9.75C7.69891 9.75 7.88968 9.67098 8.03033 9.53033L10.0303 7.53033Z" fill="#37C99E"/>
</svg>
